<mxfile host="app.diagrams.net" modified="2023-05-19T05:38:26.174Z" agent="Mozilla/5.0 (Macintosh; Intel Mac OS X 10_15_7) AppleWebKit/537.36 (KHTML, like Gecko) Chrome/112.0.0.0 Safari/537.36" version="21.2.1" etag="m3q2c08idOVWNZ2yrrYd" type="github">
  <diagram name="第 1 页" id="41UVRYjbjcYICC-9uCGf">
    <mxGraphModel>
      <root>
        <mxCell id="0" />
        <mxCell id="1" parent="0" />
      </root>
    </mxGraphModel>
  </diagram>
</mxfile>
